<svg width="71" height="47" viewBox="0 0 71 47" fill="none" xmlns="http://www.w3.org/2000/svg">
<g clip-path="url(#clip0_212_219)">
<path d="M21.3545 34.9725C20.9197 34.6758 20.4203 34.4416 20.062 34.0711C18.8672 32.8355 17.7248 31.5494 16.5591 30.2856C14.8822 28.4676 13.2155 26.6401 11.519 24.8405C10.6045 23.8706 9.61526 22.9712 8.6984 22.0034C6.90161 20.1067 5.13187 18.1845 3.31162 16.1206C3.0532 15.8463 2.83408 15.7242 2.61496 15.6021C2.61496 15.6021 2.63153 15.5989 2.61284 15.5315C2.44218 15.3487 2.2902 15.2334 2.13823 15.118C2.13823 15.118 2.15528 15.1187 2.14751 15.0412C1.97291 14.7738 1.80609 14.5837 1.63926 14.3937C1.5614 14.3916 1.50193 14.3575 1.44865 14.1357C1.43542 13.7026 1.43438 13.4251 1.43335 13.1476C3.37276 11.1823 5.31218 9.21694 7.37354 7.17844C7.55648 7.04388 7.61747 6.9825 7.67847 6.92112C7.67847 6.92112 7.67131 6.9472 7.72967 6.91858C7.90796 6.73867 8.02789 6.58738 8.14781 6.43609C10.0876 4.46993 12.0275 2.50376 14.1548 0.507539C21.25 0.477307 28.1578 0.482458 35.0655 0.466704C35.6103 0.465461 36.1547 0.318856 36.6993 0.239807C43.4205 0.239807 50.1418 0.239807 56.9754 0.239807C57.6933 0.893674 58.2541 1.59687 58.9124 2.19239C61.0976 4.16934 63.3188 6.10667 65.5231 8.06262C65.665 8.18848 65.7812 8.34323 65.8707 8.86635C63.575 8.86635 61.2794 8.86635 58.8438 8.83818C58.6423 8.79366 58.5842 8.80373 58.5295 8.84022C55.9689 8.85369 53.4083 8.86715 50.6509 8.83797C48.1328 8.75352 45.8118 8.70244 43.4905 8.6877C43.3069 8.68653 43.1217 8.93766 42.9372 9.07154C38.3819 9.08526 33.8265 9.12175 29.2714 9.10427C26.4705 9.09352 23.4573 11.4031 22.3745 13.8101C22.0115 14.6169 21.8408 15.5102 21.5227 16.5479C21.4936 18.9064 21.524 21.081 21.5544 23.2555C21.5664 25.3436 21.5784 27.4318 21.5287 29.7194C21.4961 31.3749 21.5252 32.8309 21.5543 34.2869C21.5663 34.3963 21.5782 34.5057 21.5363 34.7258C21.436 34.8784 21.3934 34.9237 21.3545 34.9725Z" fill="#8156FB"/>
<path d="M28.5655 28.5681C30.7333 28.5567 32.9014 28.5691 35.0685 28.5274C37.4495 28.4816 39.829 28.3531 42.21 28.3237C43.7376 28.3048 45.2664 28.412 46.7951 28.4355C47.2066 28.4419 47.6196 28.3489 48.2133 28.3619C51.2004 28.4691 54.0061 28.5161 56.8117 28.563C55.3644 30.1214 53.9563 31.7187 52.4604 33.229C50.3126 35.3975 48.0864 37.4882 45.9198 39.6384C43.4177 42.1216 40.944 44.6334 38.5381 47.1863C36.7743 47.2398 34.9303 47.2398 32.9739 47.2398C32.7516 47.0179 32.6929 46.7416 32.5237 46.5828C31.2879 45.4222 30.0298 44.2852 28.748 42.9583C28.6601 42.3839 28.5539 41.9921 28.5535 41.6001C28.548 37.2561 28.559 32.9121 28.5655 28.5681Z" fill="#8156FB"/>
<path d="M36.5869 0.239807C36.1548 0.318856 35.6103 0.465461 35.0655 0.466704C28.1578 0.482458 21.25 0.477307 14.2269 0.47596C14.1115 0.474435 14.1455 0.359479 14.1488 0.299643C21.5929 0.239807 29.0337 0.239807 36.5869 0.239807Z" fill="#19A3E1"/>
<path d="M41.5108 14.5965C41.6785 14.6045 41.8462 14.6126 42.175 14.6206C42.3872 14.6191 42.4385 14.6175 42.4898 14.6159C44.005 14.6191 45.5203 14.6223 47.1884 14.679C47.4002 14.7761 47.4603 14.8181 47.5215 14.8584C49.4327 14.8615 51.344 14.8803 53.2549 14.8567C53.7508 14.8506 54.2451 14.7121 54.9282 14.6977C55.472 14.7943 55.8276 14.8561 56.1833 14.8565C60.8911 14.8617 65.5989 14.8583 70.3067 14.857C70.3067 14.857 70.2905 14.8593 70.2873 14.9283C70.2855 15.0488 70.2869 15.1002 70.2884 15.1516C70.2904 15.2214 70.2628 15.2762 70.0776 15.3428C69.8261 15.5319 69.7023 15.694 69.5784 15.8562C69.5772 15.9275 69.5484 15.9849 69.3539 16.0456C69.0878 16.1748 68.9597 16.2871 68.8316 16.3993C66.8087 18.421 64.7936 20.4505 62.7474 22.4483C62.595 22.597 62.2201 22.5401 61.9486 22.5409C60.4746 22.5455 59.0006 22.5381 57.3302 22.4692C55.1246 22.4361 53.1155 22.4686 51.1064 22.5012C43.6927 22.5943 36.279 22.6876 28.8653 22.7802C28.117 22.7896 27.7198 22.7111 27.9517 21.6877C28.2019 20.5838 28.0491 19.3876 28.0631 18.2315C28.0865 16.3033 29.7355 14.6647 31.6511 14.6151C33.0324 14.5793 34.4118 14.4723 35.9372 14.4876C37.8918 14.5841 39.7013 14.5903 41.5108 14.5965Z" fill="#8156FB"/>
<path d="M70.2494 14.7684C65.599 14.8582 60.8912 14.8616 56.1834 14.8565C55.8277 14.8561 55.4721 14.7942 55.0315 14.7136C60.0283 14.6707 65.1101 14.6753 70.2494 14.7684Z" fill="#48A8EA"/>
<path d="M43.0486 9.08758C43.1217 8.93765 43.3069 8.68652 43.4905 8.68769C45.8118 8.70243 48.1329 8.75351 50.5397 8.84756C48.1369 8.96774 45.6484 9.03569 43.0486 9.08758Z" fill="#01A4E7"/>
<path d="M28.4636 28.597C28.5591 32.9121 28.5481 37.2561 28.5535 41.6001C28.554 41.9921 28.6601 42.3839 28.7471 42.8745C28.6191 42.7585 28.3237 42.5442 28.3234 42.3293C28.3161 37.7615 28.342 33.1937 28.4636 28.597Z" fill="#19A4E5"/>
<path d="M41.4503 14.5119C39.7014 14.5903 37.8919 14.5841 36.032 14.503C37.7842 14.4278 39.587 14.4276 41.4503 14.5119Z" fill="#01A5E7"/>
<path d="M56.7866 28.4594C54.0061 28.5161 51.2004 28.4691 48.3074 28.3771C51.0671 28.34 53.9143 28.3479 56.7866 28.4594Z" fill="#0FA2F4"/>
<path d="M21.5703 23.1442C21.5244 21.081 21.4933 18.9064 21.5056 16.6436C21.5611 18.7144 21.573 20.8737 21.5703 23.1442Z" fill="#0AACF0"/>
<path d="M51.2168 22.5178C53.1157 22.4686 55.1248 22.436 57.2173 22.4524C55.3095 22.5123 53.3183 22.5234 51.2168 22.5178Z" fill="#58ADEE"/>
<path d="M21.5701 34.1756C21.5255 32.8309 21.4957 31.3749 21.5103 29.8309C21.5648 31.1834 21.5748 32.6239 21.5701 34.1756Z" fill="#0AACF0"/>
<path d="M1.36034 13.1835C1.43431 13.4251 1.43534 13.7026 1.43498 14.0842C0.971228 13.9277 0.773179 13.6272 1.36034 13.1835Z" fill="#19A3E1"/>
<path d="M1.65576 14.4719C1.80604 14.5837 1.97287 14.7737 2.14051 15.0461C1.98499 14.9357 1.82865 14.7429 1.65576 14.4719Z" fill="#19A3E1"/>
<path d="M2.6438 15.6763C2.83407 15.7242 3.05319 15.8463 3.3082 16.0377C3.12027 15.9882 2.89646 15.8693 2.6438 15.6763Z" fill="#19A3E1"/>
<path d="M8.08104 6.46625C8.0278 6.58735 7.90788 6.73864 7.71655 6.91492C7.76822 6.79209 7.89128 6.64426 8.08104 6.46625Z" fill="#19A3E1"/>
<path d="M2.16016 15.1871C2.29022 15.2334 2.44219 15.3487 2.60873 15.5389C2.47622 15.4945 2.32914 15.3754 2.16016 15.1871Z" fill="#19A3E1"/>
<path d="M69.6465 15.8239C69.7023 15.694 69.8261 15.5318 70.0312 15.3538C69.9798 15.4891 69.8472 15.6404 69.6465 15.8239Z" fill="#48A8EA"/>
<path d="M68.9106 16.3626C68.9597 16.287 69.0878 16.1748 69.3061 16.0585C69.2608 16.1449 69.1252 16.2354 68.9106 16.3626Z" fill="#48A8EA"/>
<path d="M21.4154 34.979C21.3934 34.9236 21.436 34.8784 21.5184 34.8069C21.5284 34.8466 21.5024 34.9161 21.4154 34.979Z" fill="#0AACF0"/>
<path d="M70.3482 15.1228C70.287 15.1002 70.2855 15.0488 70.2873 14.9202C70.3297 14.9266 70.3688 15.0102 70.3482 15.1228Z" fill="#48A8EA"/>
<path d="M7.61401 6.94458C7.61743 6.98249 7.55644 7.04387 7.44556 7.14667C7.44698 7.11474 7.49829 7.0414 7.61401 6.94458Z" fill="#19A3E1"/>
<path d="M47.5005 14.7984C47.4604 14.8181 47.4003 14.7761 47.3 14.6962C47.3323 14.686 47.4058 14.7122 47.5005 14.7984Z" fill="#01A5E7"/>
<path d="M42.464 14.5566C42.4385 14.6174 42.3872 14.619 42.259 14.6183C42.2675 14.5764 42.3528 14.5368 42.464 14.5566Z" fill="#01A5E7"/>
<path d="M58.5875 8.85264C58.5842 8.80372 58.6424 8.79365 58.732 8.82249C58.7602 8.83499 58.6455 8.86506 58.5875 8.85264Z" fill="#01A4E7"/>
</g>
<defs>
<clipPath id="clip0_212_219">
<rect width="71" height="47" fill="white"/>
</clipPath>
</defs>
</svg>
