<svg width="169" height="47" viewBox="0 0 169 47" fill="none" xmlns="http://www.w3.org/2000/svg">
<path d="M78.78 23.3V21.54C78.78 19.6867 79.2667 18.24 80.24 17.2C81.2133 16.16 82.56 15.64 84.28 15.64C86 15.64 87.38 16.16 88.42 17.2C89.1533 17.9333 89.52 19.0333 89.52 20.5H86.92C86.92 18.9133 86.0733 18.12 84.38 18.12C83.8733 18.12 83.44 18.22 83.08 18.42C82.7333 18.6067 82.4733 18.8267 82.3 19.08C82.1267 19.3333 81.9933 19.7067 81.9 20.2C81.8067 20.6933 81.7533 21.1067 81.74 21.44C81.7267 21.7733 81.72 22.22 81.72 22.78C81.72 23.34 81.72 23.72 81.72 23.92C81.7333 24.1067 81.7533 24.42 81.78 24.86C81.82 25.2867 81.8733 25.5933 81.94 25.78C82.02 25.9667 82.1267 26.2067 82.26 26.5C82.4067 26.7933 82.5867 27 82.8 27.12C83.3467 27.4667 83.9667 27.64 84.66 27.64C85.82 27.64 86.64 27.1467 87.12 26.16V25.2H85.4V22.88H89.5V27.18C89.0867 28.1533 88.4333 28.8867 87.54 29.38C86.6467 29.8733 85.6333 30.12 84.5 30.12C82.4867 30.12 81.0267 29.56 80.12 28.44C79.2267 27.3067 78.78 25.5933 78.78 23.3ZM100.274 30H95.2344C93.6344 30 92.5077 29.7267 91.8544 29.18C91.2144 28.62 90.8944 27.64 90.8944 26.24V15.76H100.274V18.24H93.6744V21.58H98.2944L98.0944 24.06H93.6744V26.04C93.6744 26.6 93.801 26.9867 94.0544 27.2C94.3077 27.4133 94.7677 27.52 95.4344 27.52H100.274V30ZM112.024 21.5L109.464 26.9C109.09 27.62 108.624 27.98 108.064 27.98C107.517 27.98 107.057 27.6 106.684 26.84L104.084 21.5V30H101.304V15.76H104.044L108.064 23.98L112.064 15.76H114.804V30H112.024V21.5ZM125.595 18.24H120.575C119.988 18.24 119.575 18.3533 119.335 18.58C119.108 18.8067 118.995 19.2 118.995 19.76V21.74H124.215L124.015 24.22H118.995V30H116.215V18.66C116.215 17.6067 116.441 16.86 116.895 16.42C117.361 15.98 118.155 15.76 119.275 15.76H125.595V18.24ZM135.892 30H130.852C129.252 30 128.125 29.7267 127.472 29.18C126.832 28.62 126.512 27.64 126.512 26.24V15.76H135.892V18.24H129.292V21.58H133.912L133.712 24.06H129.292V26.04C129.292 26.6 129.418 26.9867 129.672 27.2C129.925 27.4133 130.385 27.52 131.052 27.52H135.892V30ZM147.921 30H145.021L144.221 27.54H139.441L138.661 30H135.761L140.321 16.96C140.521 16.5067 140.741 16.1933 140.981 16.02C141.234 15.8467 141.541 15.76 141.901 15.76C142.261 15.76 142.548 15.84 142.761 16C142.988 16.16 143.188 16.48 143.361 16.96L147.921 30ZM143.581 25.2L141.901 19.56L140.141 25.2H143.581ZM157.975 25.8C157.975 27.1467 157.482 28.2067 156.495 28.98C155.508 29.74 154.248 30.12 152.715 30.12C151.502 30.12 150.328 29.7867 149.195 29.12C148.635 28.7733 148.175 28.2867 147.815 27.66C147.455 27.02 147.275 26.2933 147.275 25.48L149.795 25.36C149.795 26.08 150.102 26.64 150.715 27.04C151.328 27.44 152.008 27.64 152.755 27.64C154.422 27.64 155.255 27.0533 155.255 25.88C155.255 24.92 154.688 24.3533 153.555 24.18L151.235 23.94C150.075 23.7667 149.155 23.3533 148.475 22.7C147.795 22.0467 147.455 21.1067 147.455 19.88C147.455 18.6533 147.942 17.64 148.915 16.84C149.888 16.04 151.115 15.64 152.595 15.64C154.088 15.64 155.288 16.02 156.195 16.78C157.102 17.5267 157.555 18.4933 157.555 19.68L155.075 19.8C154.848 18.64 154.068 18.06 152.735 18.06C151.922 18.06 151.282 18.2333 150.815 18.58C150.362 18.9267 150.135 19.34 150.135 19.82C150.135 20.2867 150.302 20.66 150.635 20.94C150.968 21.2067 151.382 21.3733 151.875 21.44L154.155 21.68C156.702 22.0267 157.975 23.4 157.975 25.8ZM167.951 18.24H164.131V30H161.351V18.24H157.551V15.76H167.951V18.24Z" fill="#6D59A8"/>
<g clip-path="url(#clip0_212_216)">
<path d="M21.3545 34.9725C20.9197 34.6758 20.4203 34.4416 20.062 34.0711C18.8672 32.8355 17.7248 31.5494 16.5591 30.2856C14.8822 28.4676 13.2155 26.6401 11.519 24.8405C10.6045 23.8706 9.61526 22.9712 8.6984 22.0034C6.90161 20.1067 5.13187 18.1845 3.31162 16.1206C3.0532 15.8463 2.83408 15.7242 2.61496 15.6021C2.61496 15.6021 2.63153 15.5989 2.61284 15.5315C2.44218 15.3487 2.2902 15.2334 2.13823 15.118C2.13823 15.118 2.15528 15.1187 2.14751 15.0412C1.97291 14.7738 1.80609 14.5837 1.63926 14.3937C1.5614 14.3916 1.50193 14.3575 1.44865 14.1357C1.43542 13.7026 1.43438 13.4251 1.43335 13.1476C3.37276 11.1823 5.31218 9.21694 7.37354 7.17844C7.55648 7.04388 7.61747 6.9825 7.67847 6.92112C7.67847 6.92112 7.67131 6.9472 7.72967 6.91858C7.90796 6.73867 8.02789 6.58738 8.14781 6.43609C10.0876 4.46993 12.0275 2.50376 14.1548 0.507539C21.25 0.477307 28.1578 0.482458 35.0655 0.466704C35.6103 0.465461 36.1547 0.318856 36.6993 0.239807C43.4205 0.239807 50.1418 0.239807 56.9754 0.239807C57.6933 0.893674 58.2541 1.59687 58.9124 2.19239C61.0976 4.16934 63.3188 6.10667 65.5231 8.06262C65.665 8.18848 65.7812 8.34323 65.8707 8.86635C63.575 8.86635 61.2794 8.86635 58.8438 8.83818C58.6423 8.79366 58.5842 8.80373 58.5295 8.84022C55.9689 8.85369 53.4083 8.86715 50.6509 8.83797C48.1328 8.75352 45.8118 8.70244 43.4905 8.6877C43.3069 8.68653 43.1217 8.93766 42.9372 9.07154C38.3819 9.08526 33.8265 9.12176 29.2714 9.10427C26.4705 9.09352 23.4573 11.4031 22.3745 13.8101C22.0115 14.6169 21.8408 15.5102 21.5227 16.5479C21.4936 18.9064 21.524 21.081 21.5544 23.2555C21.5664 25.3436 21.5784 27.4318 21.5287 29.7194C21.4961 31.3749 21.5252 32.8309 21.5543 34.2869C21.5663 34.3963 21.5782 34.5057 21.5363 34.7258C21.436 34.8784 21.3934 34.9237 21.3545 34.9725Z" fill="#8156FB"/>
<path d="M28.5655 28.5681C30.7333 28.5567 32.9014 28.5691 35.0685 28.5274C37.4495 28.4816 39.829 28.3531 42.21 28.3237C43.7376 28.3048 45.2664 28.412 46.7951 28.4355C47.2066 28.4419 47.6196 28.3489 48.2133 28.3619C51.2004 28.4691 54.0061 28.5161 56.8117 28.563C55.3644 30.1214 53.9563 31.7187 52.4604 33.229C50.3126 35.3975 48.0864 37.4882 45.9198 39.6384C43.4177 42.1216 40.944 44.6334 38.5381 47.1863C36.7743 47.2398 34.9303 47.2398 32.9739 47.2398C32.7516 47.0179 32.6929 46.7416 32.5237 46.5828C31.2879 45.4222 30.0298 44.2852 28.748 42.9583C28.6601 42.3839 28.5539 41.9921 28.5535 41.6001C28.548 37.2561 28.559 32.9121 28.5655 28.5681Z" fill="#8156FB"/>
<path d="M36.5869 0.239807C36.1548 0.318856 35.6103 0.465461 35.0655 0.466704C28.1578 0.482458 21.25 0.477307 14.2269 0.47596C14.1115 0.474435 14.1455 0.359479 14.1488 0.299643C21.5929 0.239807 29.0337 0.239807 36.5869 0.239807Z" fill="#19A3E1"/>
<path d="M41.5108 14.5965C41.6785 14.6045 41.8462 14.6126 42.175 14.6206C42.3872 14.6191 42.4385 14.6175 42.4898 14.6159C44.005 14.6191 45.5203 14.6223 47.1884 14.679C47.4002 14.7761 47.4603 14.8181 47.5215 14.8584C49.4327 14.8615 51.344 14.8803 53.2549 14.8567C53.7508 14.8506 54.2451 14.7121 54.9282 14.6977C55.472 14.7943 55.8276 14.8561 56.1833 14.8565C60.8911 14.8617 65.5989 14.8583 70.3067 14.857C70.3067 14.857 70.2905 14.8593 70.2873 14.9283C70.2855 15.0488 70.2869 15.1002 70.2884 15.1516C70.2904 15.2214 70.2628 15.2762 70.0776 15.3428C69.8261 15.5319 69.7023 15.694 69.5784 15.8562C69.5772 15.9275 69.5484 15.9849 69.3539 16.0456C69.0878 16.1748 68.9597 16.2871 68.8316 16.3993C66.8087 18.421 64.7936 20.4505 62.7474 22.4483C62.595 22.597 62.2201 22.5401 61.9486 22.5409C60.4746 22.5455 59.0006 22.5381 57.3302 22.4692C55.1246 22.4361 53.1155 22.4686 51.1064 22.5012C43.6927 22.5943 36.279 22.6876 28.8653 22.7802C28.117 22.7896 27.7198 22.7111 27.9517 21.6877C28.2019 20.5838 28.0491 19.3876 28.0631 18.2315C28.0865 16.3033 29.7355 14.6647 31.6511 14.6151C33.0324 14.5793 34.4118 14.4723 35.9372 14.4876C37.8918 14.5841 39.7013 14.5903 41.5108 14.5965Z" fill="#8156FB"/>
<path d="M70.2494 14.7684C65.599 14.8582 60.8912 14.8616 56.1834 14.8565C55.8277 14.8561 55.4721 14.7942 55.0315 14.7136C60.0283 14.6707 65.1101 14.6753 70.2494 14.7684Z" fill="#48A8EA"/>
<path d="M43.0486 9.08758C43.1217 8.93765 43.3069 8.68652 43.4905 8.68769C45.8118 8.70243 48.1329 8.75351 50.5397 8.84756C48.1369 8.96774 45.6484 9.03569 43.0486 9.08758Z" fill="#01A4E7"/>
<path d="M28.4636 28.597C28.5591 32.9121 28.5481 37.2561 28.5535 41.6001C28.554 41.9921 28.6601 42.3839 28.7471 42.8745C28.6191 42.7585 28.3237 42.5442 28.3234 42.3293C28.3161 37.7615 28.342 33.1937 28.4636 28.597Z" fill="#19A4E5"/>
<path d="M41.4503 14.5119C39.7014 14.5903 37.8919 14.5841 36.032 14.503C37.7842 14.4278 39.587 14.4276 41.4503 14.5119Z" fill="#01A5E7"/>
<path d="M56.7866 28.4594C54.0061 28.5161 51.2004 28.4691 48.3074 28.3771C51.0671 28.34 53.9143 28.3479 56.7866 28.4594Z" fill="#0FA2F4"/>
<path d="M21.5703 23.1442C21.5244 21.081 21.4933 18.9064 21.5056 16.6436C21.5611 18.7144 21.573 20.8737 21.5703 23.1442Z" fill="#0AACF0"/>
<path d="M51.2168 22.5178C53.1157 22.4686 55.1248 22.436 57.2173 22.4524C55.3095 22.5123 53.3183 22.5234 51.2168 22.5178Z" fill="#58ADEE"/>
<path d="M21.5701 34.1756C21.5255 32.8309 21.4957 31.3749 21.5103 29.8309C21.5648 31.1834 21.5748 32.6239 21.5701 34.1756Z" fill="#0AACF0"/>
<path d="M1.36034 13.1835C1.43431 13.4251 1.43534 13.7026 1.43498 14.0842C0.971228 13.9277 0.773179 13.6272 1.36034 13.1835Z" fill="#19A3E1"/>
<path d="M1.65576 14.4719C1.80604 14.5837 1.97287 14.7737 2.14051 15.0461C1.98499 14.9357 1.82865 14.7429 1.65576 14.4719Z" fill="#19A3E1"/>
<path d="M2.6438 15.6763C2.83407 15.7242 3.05319 15.8463 3.3082 16.0377C3.12027 15.9882 2.89646 15.8693 2.6438 15.6763Z" fill="#19A3E1"/>
<path d="M8.08104 6.46625C8.0278 6.58735 7.90788 6.73864 7.71655 6.91492C7.76822 6.79209 7.89128 6.64426 8.08104 6.46625Z" fill="#19A3E1"/>
<path d="M2.16016 15.1871C2.29022 15.2334 2.44219 15.3487 2.60873 15.5389C2.47622 15.4945 2.32914 15.3754 2.16016 15.1871Z" fill="#19A3E1"/>
<path d="M69.6465 15.8239C69.7023 15.694 69.8261 15.5318 70.0312 15.3538C69.9798 15.4891 69.8472 15.6404 69.6465 15.8239Z" fill="#48A8EA"/>
<path d="M68.9106 16.3626C68.9597 16.287 69.0878 16.1748 69.3061 16.0585C69.2608 16.1449 69.1252 16.2354 68.9106 16.3626Z" fill="#48A8EA"/>
<path d="M21.4154 34.979C21.3934 34.9236 21.436 34.8784 21.5184 34.8069C21.5284 34.8466 21.5024 34.9161 21.4154 34.979Z" fill="#0AACF0"/>
<path d="M70.3482 15.1228C70.287 15.1002 70.2855 15.0488 70.2873 14.9202C70.3297 14.9266 70.3688 15.0102 70.3482 15.1228Z" fill="#48A8EA"/>
<path d="M7.61401 6.94458C7.61743 6.98249 7.55644 7.04387 7.44556 7.14667C7.44698 7.11474 7.49829 7.0414 7.61401 6.94458Z" fill="#19A3E1"/>
<path d="M47.5005 14.7984C47.4604 14.8181 47.4003 14.7761 47.3 14.6962C47.3323 14.686 47.4058 14.7122 47.5005 14.7984Z" fill="#01A5E7"/>
<path d="M42.464 14.5566C42.4385 14.6174 42.3872 14.619 42.259 14.6183C42.2675 14.5764 42.3528 14.5368 42.464 14.5566Z" fill="#01A5E7"/>
<path d="M58.5875 8.85264C58.5842 8.80372 58.6424 8.79365 58.732 8.82249C58.7602 8.83499 58.6455 8.86506 58.5875 8.85264Z" fill="#01A4E7"/>
</g>
<defs>
<clipPath id="clip0_212_216">
<rect width="71" height="47" fill="white"/>
</clipPath>
</defs>
</svg>
