<svg width="36" height="36" viewBox="0 0 36 36" fill="none" xmlns="http://www.w3.org/2000/svg">
<g clip-path="url(#clip0_154_328)">
<path d="M31.7828 0H4.21736C3.66219 0.00116202 3.11271 0.0979957 2.60031 0.284972C2.08791 0.471948 1.62262 0.745405 1.231 1.08973C0.839378 1.43405 0.529104 1.8425 0.317891 2.29175C0.106678 2.741 -0.00133688 3.22225 1.28393e-05 3.70802V28.044C-0.00135538 28.5298 0.106643 29.011 0.31784 29.4603C0.529038 29.9095 0.839298 30.318 1.23091 30.6623C1.62251 31.0066 2.0878 31.2801 2.60019 31.4671C3.11258 31.654 3.66205 31.7509 4.21722 31.752H27.5452L26.4548 28.422L29.088 30.564L31.5771 32.58L36 36V3.70802C36.0014 3.22225 35.8934 2.741 35.6822 2.29176C35.471 1.84251 35.1607 1.43406 34.7691 1.08974C34.3775 0.745411 33.9122 0.471952 33.3998 0.284974C32.8874 0.0979966 32.338 0.00116201 31.7828 0ZM23.8423 23.5081C23.8423 23.5081 23.1017 22.734 22.4845 22.05C25.1795 21.384 26.208 19.908 26.208 19.908C25.4679 20.3391 24.6742 20.6954 23.8423 20.9699C22.8853 21.3274 21.8844 21.5871 20.8595 21.744C19.0976 22.0278 17.2908 22.0217 15.5315 21.726C14.4988 21.5491 13.4868 21.2901 12.508 20.9521C11.992 20.7784 11.4902 20.5739 11.0062 20.34C10.9446 20.304 10.8828 20.286 10.8211 20.25C10.7902 20.2365 10.7623 20.2183 10.7388 20.1961C10.3686 20.0161 10.1623 19.8901 10.1623 19.8901C10.1623 19.8901 11.1497 21.3297 13.7623 22.014C13.1452 22.6981 12.3842 23.508 12.3842 23.508C7.83775 23.382 6.10989 20.7721 6.10989 20.7721C6.10989 14.9765 9.07215 10.278 9.07215 10.278C12.0344 8.33385 14.8527 8.38799 14.8527 8.38799L15.0584 8.60406C11.3555 9.53984 9.64801 10.962 9.64801 10.962C9.64801 10.962 10.1005 10.7461 10.8616 10.4401C13.0628 9.59398 14.8115 9.36007 15.5315 9.30605C15.6466 9.28513 15.7637 9.27306 15.8812 9.26999C17.2598 9.11286 18.6549 9.1008 20.0367 9.23407C22.2097 9.45122 24.3131 10.0382 26.2285 10.962C26.2285 10.962 24.6035 9.61207 21.1063 8.67605L21.3943 8.38812C21.3943 8.38812 24.2125 8.33398 27.1748 10.2781C27.1748 10.2781 30.1372 14.9761 30.1372 20.7721C30.1372 20.7721 28.3885 23.382 23.8423 23.508V23.5081ZM14.2765 15.1021C13.104 15.1021 12.1784 16.002 12.1784 17.1C12.1784 18.1979 13.1245 19.098 14.2765 19.098C15.4492 19.098 16.3748 18.198 16.3748 17.1C16.3955 16.002 15.4491 15.1021 14.2765 15.1021ZM21.7852 15.1021C20.6125 15.1021 19.6868 16.002 19.6868 17.1C19.6868 18.1979 20.6332 19.098 21.7852 19.098C22.9577 19.098 23.8833 18.198 23.8833 17.1C23.8833 16.0019 22.9577 15.1021 21.7852 15.1021Z" fill="#7289DA"/>
</g>
<defs>
<clipPath id="clip0_154_328">
<rect width="36" height="36" fill="white"/>
</clipPath>
</defs>
</svg>
