<svg width="36" height="36" viewBox="0 0 36 36" fill="none" xmlns="http://www.w3.org/2000/svg">
<g clip-path="url(#clip0_154_330)">
<path d="M35.9895 0H0.0105469C0.004722 0 0 0.004722 0 0.0105469V35.9895C0 35.9953 0.004722 36 0.0105469 36H35.9895C35.9953 36 36 35.9953 36 35.9895V0.0105469C36 0.004722 35.9953 0 35.9895 0Z" fill="#12100E"/>
<path d="M8.78906 12.1641C8.78906 11.8828 8.64844 11.5312 8.4375 11.3906L6.25781 8.71875V8.29688H13.1484L18.4219 19.9688L23.1328 8.29688H29.6719V8.71875L27.7734 10.5469C27.6328 10.6172 27.5625 10.8281 27.5625 11.0391V24.3984C27.5625 24.6094 27.6328 24.8203 27.7734 24.9609L29.6719 26.7188V27.1406H20.3203V26.7188L22.2188 24.8906C22.4297 24.6797 22.4297 24.6094 22.4297 24.3281V13.5703L17.0859 27.0703H16.3828L10.1953 13.5703V22.6406C10.125 22.9922 10.2656 23.4141 10.5469 23.6953L13.0078 26.7188V27.0703H5.97656V26.7188L8.4375 23.6953C8.71875 23.4141 8.85938 22.9922 8.78906 22.6406V12.1641Z" fill="white"/>
</g>
<defs>
<clipPath id="clip0_154_330">
<rect width="36" height="36" fill="white"/>
</clipPath>
</defs>
</svg>
