<svg width="36" height="36" viewBox="0 0 36 36" fill="none" xmlns="http://www.w3.org/2000/svg">
<g clip-path="url(#clip0_154_318)">
<path d="M36 18C36 21.5601 34.9443 25.0402 32.9665 28.0003C30.9886 30.9603 28.1774 33.2675 24.8883 34.6298C21.5992 35.9922 17.98 36.3487 14.4884 35.6541C10.9967 34.9596 7.78943 33.2453 5.27209 30.7279C2.75474 28.2106 1.04041 25.0033 0.345873 21.5116C-0.348661 18.02 0.00779914 14.4008 1.37018 11.1117C2.73255 7.82263 5.03966 5.01141 7.99974 3.03355C10.9598 1.05568 14.4399 7.11887e-07 18 7.11887e-07C20.364 -0.000664208 22.7049 0.464466 24.8891 1.36881C27.0733 2.27316 29.0578 3.59901 30.7294 5.2706C32.401 6.94218 33.7268 8.92675 34.6312 11.1109C35.5355 13.2951 36.0007 15.636 36 18Z" fill="url(#paint0_linear_154_318)"/>
<path d="M14.6997 26.2492C14.1148 26.2492 14.2196 26.0244 14.0096 25.4691L12.2998 19.8297L22.9198 13.1997L24.1647 13.5297L23.1298 16.3493L14.6997 26.2492Z" fill="#C8DAEA"/>
<path d="M14.7 26.2497C14.8741 26.2463 15.0451 26.2041 15.2008 26.1262C15.3565 26.0484 15.4929 25.9368 15.6001 25.7997C15.9902 25.4248 20.9999 20.5499 20.9999 20.5499L17.9252 19.7998L15.0752 21.5996L14.7 26.0997V26.2497Z" fill="#A9C9DD"/>
<path d="M15.0001 21.6599L22.2586 27.0149C23.0835 27.4649 23.6836 27.2397 23.8936 26.25L26.8494 12.33C27.1495 11.1151 26.3846 10.575 25.5893 10.9351L8.25011 17.625C7.06517 18.1051 7.07999 18.7651 8.04009 19.05L12.495 20.445L22.8008 13.9498C23.2809 13.6498 23.7309 13.815 23.3709 14.1447L15.0001 21.6599Z" fill="url(#paint1_linear_154_318)"/>
</g>
<defs>
<linearGradient id="paint0_linear_154_318" x1="-102.492" y1="80.244" x2="-104.004" y2="76.716" gradientUnits="userSpaceOnUse">
<stop stop-color="#37AEE2"/>
<stop offset="1" stop-color="#1E96C8"/>
</linearGradient>
<linearGradient id="paint1_linear_154_318" x1="19.3398" y1="17.7344" x2="22.1631" y2="11.3317" gradientUnits="userSpaceOnUse">
<stop stop-color="#EFF7FC"/>
<stop offset="1" stop-color="white"/>
</linearGradient>
<clipPath id="clip0_154_318">
<rect width="36" height="36" fill="white"/>
</clipPath>
</defs>
</svg>
